<?xml version="1.0"?><svg width="619.04" height="157.187" xmlns="http://www.w3.org/2000/svg">
 <title>Brown Tree Branch</title>
 <metadata id="metadata7">image/svg+xmlstick03 13 2007SRDstickwooda stick of wood</metadata>
 <g>
  <title>Layer 1</title>
  <g transform="matrix(0.204826 0.55378 0.563208 -0.201397 -56.4264 -28.183)" id="g3068">
   <path d="m176.380081,54.395618l-49.605011,2.755798l-28.936005,16.535l114.36702,235.623917l75.784973,176.372986l35.826019,132.279999l15.156982,88.187012l22.046997,1.377991l17.912994,-31.692017l41.337006,63.383972l56.494995,180.507019l37.204041,-6.888977l-15.157043,-67.518005l28.936035,30.313965l33.070007,-12.401978l-67.518005,-103.343018l-82.675018,-198.419983l-75.785004,-169.483978l74.407013,16.535004l6.889984,-35.825989l-104.721985,-84.053009l-66.139999,-100.588013l-56.494995,-119.878601l-12.401001,-13.779095z" fill="#7f3f00" id="path3070"/>
   <path d="m469.216064,925.300293c-2.588013,-2.117981 -6.256012,-12.330017 -8.151001,-22.695007c-6.300995,-34.463013 -25.884003,-99.971985 -39.213989,-131.177979c-7.238007,-16.944031 -13.160004,-32.182007 -13.160004,-33.862c0,-3.778015 -24.587006,-42.427979 -28.546997,-44.875c-1.584015,-0.979004 -5.96701,3.776978 -9.740021,10.56897c-6.696991,12.054993 -7.212982,12.346008 -21.658997,12.242004c-20.518005,-0.14801 -24.118988,-3.962952 -24.18399,-25.615967c-0.132996,-44.395996 -11.69101,-100.769043 -34.256989,-167.072998c-28.955017,-85.079987 -45.632004,-126.562988 -63.520996,-158.005981c-6.350006,-11.162018 -12.524002,-23.556 -13.720001,-27.541992c-1.195007,-3.987 -5.141998,-13.119019 -8.770004,-20.295013c-3.628998,-7.174988 -9.853989,-20.221008 -13.835999,-28.990997c-22.076996,-48.636032 -52.485992,-111.750015 -75.062012,-155.791016c-14.087997,-27.483002 -25.614998,-53.268799 -25.614998,-57.301201c0,-9.636703 12.658997,-17.301296 38.152,-23.099499c20.461014,-4.653801 50.986008,-5.859596 56.263016,-2.222496c6.531998,4.501999 22.897995,31.584896 31.800995,52.626194c5.115997,12.090996 16.718002,36.987007 25.782013,55.323997c50.841965,102.853027 104.296982,168.040009 161.838974,197.358032c18.23999,9.293976 22.468994,12.708984 22.468994,18.14798c0,10.44101 -8.460999,32.712006 -14.507996,38.183014c-5.15799,4.669006 -6.487,4.617004 -23.744995,-0.923004c-27.84201,-8.938995 -40.024994,-10.705017 -40.024994,-5.800995c0,2.242981 5.697998,15.760986 12.661987,30.039001c6.964996,14.278992 13.660004,29.222992 14.877991,33.208984c1.218018,3.987 7.067017,17.03302 12.997009,28.992004c14.274017,28.78598 41.94101,92.908966 62.54599,144.958954c17.531006,44.285034 40.708008,95.351013 55.057983,121.309021c10.791016,19.518982 48.765015,76.932983 59.662048,90.203003l8.225952,10.016968l-5.875977,6.255005c-6.153015,6.549011 -30.588013,15.748047 -41.83197,15.748047c-3.609009,0 -8.751038,-2.934998 -11.427002,-6.52301c-3.254028,-4.363037 -4.378052,-4.88501 -3.393005,-1.578003c0.809998,2.721008 3.104004,12.846985 5.098999,22.502991c3.231995,15.651001 3.093994,18.088989 -1.273987,22.45697c-6.444031,6.444031 -39.174042,8.747009 -45.91803,3.231018zm31.109985,-15.213013c0.869019,-2.263 -2.43396,-16.186951 -7.338989,-30.941956c-9.833008,-29.581055 -11.502991,-48.209045 -4.561981,-50.873047c8.952972,-3.434998 18.392975,2.014038 27.03598,15.609009c15.169983,23.859009 19.815002,27.216003 29.327026,21.197998c5.555969,-3.515015 1.367981,-12.737 -17.192017,-37.852966c-31.208008,-42.233032 -59.024017,-98.03302 -96.860992,-194.308044c-12.207001,-31.05896 -30.107025,-73.431946 -39.779022,-94.16095c-9.67099,-20.729004 -23.836975,-51.388 -31.477997,-68.130981c-7.641998,-16.742004 -18.835999,-41.127014 -24.876007,-54.188019c-16.102997,-34.820984 -11.774994,-37.259003 44.299011,-24.954987c16.976013,3.725006 21.783997,3.899994 25.368011,0.925995c7.756989,-6.437988 5.410004,-16.804993 -5.001007,-22.089996c-23.299988,-11.830017 -49.325012,-31.804993 -70.515991,-54.125c-42.657013,-44.929016 -65.076019,-80.124023 -107.153,-168.212021c-17.356995,-36.335999 -35.061996,-70.256798 -39.345993,-75.378799c-7.459,-8.919796 -8.650009,-9.303394 -28.238998,-9.094494c-21.003006,0.223999 -42.203018,7.02039 -45.051025,14.442692c-0.798996,2.082802 12.874008,32.030602 30.385025,66.550606c17.511993,34.518997 42.919998,87.119995 56.462997,116.890015c13.542999,29.769989 32.910995,70.436005 43.039001,90.368011c23.60997,46.458984 35.262985,74.543976 54.73497,131.912994c31.906006,94.001953 38.684998,121.209961 45.744019,183.599976c2.423981,21.420959 4.608978,30.411987 7.675995,31.588989c5.812012,2.22998 9.402008,-4.267029 9.455994,-17.112976c0.041992,-10.150024 5.880005,-19.776001 11.992004,-19.776001c12.686005,0 39.34201,30.799988 44.483002,51.399963c1.102997,4.41803 3.795013,10.020996 5.983002,12.450012c4.235992,4.703003 19.15799,39.163025 26.334991,60.815002c11.395996,34.380005 26.906006,87.471008 30.096008,103.013977c1.951996,9.515991 4.872986,18.933044 6.48999,20.926025c3.994995,4.924988 16.53598,4.59198 18.485992,-0.491028zm-42.064972,-135.479004c-5.120026,-14.685974 -3.835999,-19.454956 2.61499,-9.713989c6.018982,9.088013 7.666992,18.845032 3.182983,18.845032c-1.438995,0 -4.047974,-4.109009 -5.797974,-9.131042zm-18.205017,-42.000977c-12.083984,-19.650024 -19.768005,-37.103027 -19.768005,-44.895996c0,-6.320007 3.729004,-7.080994 8.216003,-1.674988c4.373993,5.269958 24.045013,57.451965 22.925018,60.812988c-0.506012,1.515991 -5.623016,-4.892029 -11.373016,-14.242004zm-57.992004,-112.765991c-6.881989,-8.968994 -16.028992,-20.867004 -20.325989,-26.439026c-9.812988,-12.723999 -18.114014,-34.06897 -15.697998,-40.365967c2.709991,-7.061035 8.78299,-0.885986 13.011993,13.229004c3.710999,12.388977 5.716003,13.776001 11.565002,8.006958c2.945007,-2.903992 4.497986,-2.506958 7.826996,2.004028c5.593018,7.576965 5.23999,10.102966 -1.77301,12.697021c-5.768982,2.133972 -5.703979,2.500977 2.416016,13.677979c7.885986,10.856018 18.006989,21.029968 18.006989,18.10199c0,-0.737 -2.480988,-11.042969 -5.513977,-22.901001c-5.778015,-22.588989 -12.495026,-36.153992 -28.372009,-57.292969c-5.244019,-6.982056 -13.352997,-20.68103 -18.02002,-30.441986c-4.666992,-9.760986 -11.856995,-22.240021 -15.978973,-27.731995c-7.315002,-9.747009 -9.684021,-17.564026 -5.319,-17.550018c1.194977,0.003998 5.949982,7.233002 10.565002,16.06601c4.61499,8.832001 14.47998,24.158997 21.92099,34.057953c7.44101,9.900024 18.210999,25.174988 23.932983,33.945007c11.124023,17.049011 32.955017,77.88501 29.192017,81.346985c-1.243011,1.143005 -5.109009,2.937988 -8.59201,3.988037c-5.243988,1.58197 -8.483002,-0.893005 -18.845001,-14.39801zm-96.96698,-213.721985c-8.027008,-9.126984 -21.365997,-30.425995 -21.365997,-34.117981c0,-1.693024 -2.700012,-8.370026 -6,-14.83902c-3.30101,-6.470001 -5.266006,-12.497986 -4.366989,-13.397003c2.806961,-2.806 12.651962,8.046997 14.676987,16.181c2.415985,9.705017 17.461975,36.311005 23.250977,41.115021c4.623016,3.835999 5.917999,11.582001 1.937012,11.582001c-1.316986,0 -4.976013,-2.936005 -8.131989,-6.524017zm-36.447006,-104.380981c-7.132996,-14.755005 -15.171997,-33.346008 -17.862991,-41.313019c-2.690994,-7.966995 -10.059006,-21.660995 -16.373993,-30.431015c-14.874008,-20.656998 -21.131012,-31.987991 -18.89801,-34.222c4.141998,-4.141998 37.962997,47.792007 46.048996,70.710022c2.261017,6.410004 7.986023,19.414001 12.722015,28.897003c4.735977,9.483002 9.475967,20.82901 10.532974,25.213989c3.838013,15.919006 -3.485992,7.378021 -16.168991,-18.85498zm-43.770996,-131.855026c-0.697998,-1.222 -2.944992,-7.412003 -4.991989,-13.755997c-2.048004,-6.343002 -9.721008,-20.553009 -17.05101,-31.577011c-22.781998,-34.261993 -23.965988,-36.375992 -22.074997,-39.435989c1.013,-1.638 2.940002,-2.979004 4.283005,-2.979004c3.067001,0 12.502991,15.842003 16.815994,28.233002c1.796997,5.164001 7.031998,14.949005 11.632004,21.744003c10.505005,15.519989 18.751999,36.225998 15.281006,38.369995c-1.443008,0.893005 -3.196014,0.623001 -3.894012,-0.598999zm-59.692001,-37.431c-5.686996,-8.068008 -8.378998,-14.427994 -6.781998,-16.024994c1.596008,-1.596008 4.230011,-0.738007 6.637009,2.161987c3.974991,4.789001 11.873001,24.942001 10.365997,26.449005c-0.434998,0.434998 -5.035004,-5.227997 -10.221008,-12.585999z" fill="#000000" id="path3072"/>
  </g>
  <ellipse ry="17" rx="47.4277" cy="111.287" cx="563.831" transform="rotate(19.7988 563.831 111.287)" stroke-width="5" stroke="#000000" fill="#007f3f" id="svg_1"/>
  <ellipse ry="16" rx="53.6736" cy="122.126" cx="269.169" transform="rotate(25.7693 269.169 122.126)" stroke-width="5" stroke="#000000" fill="#3f7f00" id="svg_2"/>
  <ellipse ry="33.8288" rx="14" cy="49.6814" cx="556.124" transform="rotate(37.5686 556.124 49.6813)" stroke-width="5" stroke="#000000" fill="#3f7f00" id="svg_3"/>
  <ellipse ry="17" rx="31" cy="108.094" cx="190.96" transform="rotate(-27.7586 190.96 108.094)" stroke-width="5" stroke="#000000" fill="#007f00" id="svg_4"/>
  <ellipse ry="18" rx="40" cy="82.094" cx="574.96" stroke-width="5" stroke-linejoin="null" stroke-linecap="null" stroke-dasharray="null" stroke="#000000" fill="#3f7f00" id="svg_5"/>
  <ellipse ry="24.5" rx="46" cy="49.594" cx="423.96" transform="rotate(-13.5479 423.96 49.594)" stroke-width="5" stroke-linejoin="null" stroke-linecap="null" stroke-dasharray="null" stroke="#000000" fill="#3f7f00" id="svg_6"/>
 </g>
</svg>